<svg xmlns="http://www.w3.org/2000/svg" xmlns:xlink="http://www.w3.org/1999/xlink" viewBox="0 0 524.78 485.83"><defs><style>.cls-1,.cls-30,.cls-6,.cls-7{fill:none;}.cls-2{fill:#110b04;opacity:0.14;}.cls-23,.cls-3{fill:#f4a328;}.cls-14,.cls-23,.cls-25,.cls-26,.cls-27,.cls-28,.cls-29,.cls-3,.cls-30{stroke:#231f20;}.cls-12,.cls-13,.cls-14,.cls-24,.cls-25,.cls-26,.cls-27,.cls-28,.cls-29,.cls-3,.cls-31,.cls-7,.cls-8,.cls-9{stroke-miterlimit:10;}.cls-23,.cls-24,.cls-25,.cls-26,.cls-27,.cls-28,.cls-3{stroke-width:3px;}.cls-4{fill:#fff;}.cls-29,.cls-5{fill:#231f20;}.cls-11,.cls-12,.cls-13,.cls-31,.cls-34,.cls-36,.cls-37,.cls-6,.cls-7,.cls-8,.cls-9{stroke:#000;}.cls-23,.cls-30,.cls-34,.cls-36,.cls-37,.cls-6{stroke-linecap:round;}.cls-11,.cls-23,.cls-30,.cls-34,.cls-36,.cls-37,.cls-6{stroke-linejoin:round;}.cls-11,.cls-35,.cls-8{fill:#5f2080;}.cls-36,.cls-9{fill:#7637a5;}.cls-10{fill:#1d286d;}.cls-11,.cls-30,.cls-34{stroke-width:2px;}.cls-12{fill:#130e28;}.cls-13{fill:#f0cd00;}.cls-13,.cls-14,.cls-31{stroke-width:4px;}.cls-14,.cls-31,.cls-33{fill:#ffde50;}.cls-15{fill:#ffea94;}.cls-16{fill:#faa300;}.cls-17{fill:#ffbd00;}.cls-18{fill:#f68e00;}.cls-19{fill:#27e19d;}.cls-20{fill:#8b93b3;}.cls-21{fill:#626890;}.cls-22{fill:#434976;}.cls-24,.cls-26{fill:#f79420;}.cls-24{stroke:#221f1f;}.cls-25{fill:#949698;}.cls-27{fill:#58595b;}.cls-28{fill:#30302f;}.cls-32{fill:#a0641c;}.cls-34{fill:#8e51cc;}.cls-37{fill:#d1e5e4;}.cls-38{fill:#0f0603;opacity:0.24;}.cls-39{isolation:isolate;}.cls-40{clip-path:url(#clip-path);}.cls-41{clip-path:url(#clip-path-2);}</style><clipPath id="clip-path"><polygon class="cls-1" points="291.24 49.81 290.46 13.18 371.3 17.87 372.08 54.51 291.24 49.81"/></clipPath><clipPath id="clip-path-2"><polygon class="cls-1" points="267.27 137.93 266.81 108.48 303.28 111.61 303.75 141.06 267.27 137.93"/></clipPath></defs><g id="Layer_2" data-name="Layer 2"><g id="Layer_1-2" data-name="Layer 1"><path class="cls-2" d="M320.91,450.71,89.84,485.37a42,42,0,0,1-25.57-4.26L3.39,449.51a6.29,6.29,0,0,1,1.88-11.78L151.5,413.59Z"/><circle class="cls-2" cx="111.43" cy="275.97" r="49.26"/><path class="cls-3" d="M71.25,318.56c-15.25-6.4-30.08-16.87-34.86-33.89-.2,2.2-.39,4.43-.58,6.71h0c-3.41,43.26-2.19,101.17,20,145.67A32.54,32.54,0,0,0,71.4,451.81C81.62,456.55,95.54,458,104.78,432A36,36,0,0,0,117,440.44c6.68,2.95,14.9,1.27,19.27-3.86,8.81-10.34,12.46-26.64,13.84-41a109.8,109.8,0,0,1-8.55-7c-.91-.82-1.8-1.65-2.67-2.5A99.72,99.72,0,0,1,126.72,372,85.51,85.51,0,0,1,111,330l-.09-1c.92.06,2,.09,3.16.1h1.15l1.37,0a22.63,22.63,0,0,0,3-.38,36.75,36.75,0,0,0,5.5-1.49h0l.07,0c5.12-1.86,10.54-5.27,11.09-11.07.3-3.14-.82-7-4.18-11.62q-.83-1.14-1.77-2.22c.37.46.72.92,1.06,1.39,3.35,4.65,4.48,8.48,4.18,11.62a10.35,10.35,0,0,1-3.38,6.58,0,0,0,0,0,0,0c-3.66,3.51-9.47,5.28-13.29,6a21.13,21.13,0,0,1-3,.38c-.35,0-.71,0-1.06,0"/><path class="cls-4" d="M63.22,321s23.84,11.6,44.75,14.18c1.43,14.32,3.38,38,26,64.76-11.89,11.74-22.42,8.6-22.42,8.6l.86-17.85S66.41,379.53,63.22,321Z"/><path class="cls-5" d="M102.35,434.57c1.35-4,2.81-8,4-12.1a121.46,121.46,0,0,0,3.12-12.36c.82-4.17,1.38-8.41,1.81-12.67s.82-8.56,1.47-12.8h0c-.32,4.29-.29,8.57-.45,12.87s-.41,8.61-1,12.9A123.35,123.35,0,0,1,109,423.2a114.08,114.08,0,0,1-3.8,12.42,1.53,1.53,0,0,1-2.89-1Z"/><path class="cls-6" d="M144.42,252.43v.19"/><path class="cls-6" d="M152.45,245.6a.58.58,0,0,0,0-.18"/><path class="cls-7" d="M233.5,63.54a6.52,6.52,0,0,1,.63-.18l.6.06"/><path class="cls-7" d="M266.4,95.58v56.58l38.8,1.57V99.56Z"/><path class="cls-8" d="M258.14,84.19V172s-.07.09-.18.26c-1.72,2.46-14.9,21.4-19.68,28.13a4.75,4.75,0,0,1-.67-2.44V87.57A4.9,4.9,0,0,1,243,82.72Z"/><path class="cls-9" d="M266.4,95.59v56.57l38.8,1.57v22.05L258,172.23a3.22,3.22,0,0,1,.18-.27V84.19l42.63,4.14a4.89,4.89,0,0,1,4.43,4.86v6.37Z"/><path class="cls-10" d="M305.2,97.81l-.37,58.52-38.27-2.92a2.41,2.41,0,0,1-2.22-2.39V95.71a1.89,1.89,0,0,1,2.08-1.88Z"/><path class="cls-8" d="M305.3,175.88v27.33a4.89,4.89,0,0,1-5.35,4.85l-57.77-5.2a4.92,4.92,0,0,1-3.81-2.42c4.78-6.73,18-25.67,19.68-28.12Z"/><path class="cls-11" d="M306,71.07l-71.3-7.65h0l-1.23.12h0A9.43,9.43,0,0,0,227,72.49V229.28c.28.42.57.85.85,1.29s.4.61.6.93l.15.23s0,0,0,.06c.89,1.4,1.75,2.83,2.56,4.27.08.16.17.31.26.46s.11.2.16.31c.3.52.59,1,.86,1.58h0l.88,1.67a.11.11,0,0,0,0,.07l.39.78.45.91.06.14c.13.27.26.53.38.8a2,2,0,0,1,.11.2,2,2,0,0,0,.1.21c.06.13.12.26.17.39s.26.55.39.83c.19.43.39.87.58,1.31s.33.76.49,1.15l.1.24c.14.31.27.64.4.95.34.84.68,1.7,1,2.55.17.42.32.85.47,1.26s.3.86.45,1.28c.27.77.53,1.56.78,2.33.19.59.37,1.19.55,1.79.1.34.21.69.31,1s.25.9.38,1.35.23.84.34,1.27.21.82.31,1.24.23.94.33,1.41c.06.21.1.43.15.63s.11.47.16.71c.09.44.19.89.28,1.34s.13.68.2,1h0c.11.56.21,1.12.32,1.68.13.83.27,1.67.41,2.52,0,.11,0,.22,0,.33.06.4.12.81.17,1.22.17,1.22.3,2.44.42,3.66.05.4.08.8.11,1.19s.07.86.1,1.29c.19,2.59.29,5.21.28,7.85,0,1,0,2.08-.05,3.11,0,.31,0,.62,0,.93,0,.84-.08,1.67-.13,2.51l-.09,1.28c0,.44-.08.87-.11,1.31s-.06.62-.1.93c0,.55-.1,1.09-.17,1.64l-.12,1c0,.19-.05.38-.07.57-.06.41-.12.85-.18,1.27s-.15,1-.23,1.52-.12.73-.19,1.09c-.11.71-.24,1.43-.38,2.13l0,.22c0,.08,0,.16,0,.25s0,.25-.08.37-.05.28-.08.41c-.16.77-.32,1.52-.5,2.27-.32,1.39-.66,2.76-1,4.12-.09.33-.19.66-.28,1a102.38,102.38,0,0,1-4,11.47c-.16.39-.33.78-.5,1.17s-.31.72-.47,1.08c-.05.12-.11.23-.16.35-.31.69-.63,1.36-1,2-.55,1.14-1.11,2.28-1.7,3.41-.19.33-.37.68-.54,1-.64,1.18-1.3,2.35-2,3.5l-1.25,2.06c-.67,1.08-1.37,2.15-2.09,3.2v78.35a10.09,10.09,0,0,0,7.87,9.84l86,18.25h0v-363A16.71,16.71,0,0,0,306,71.07Zm7.2,151.1a7.59,7.59,0,0,1-8.28,7.56l-66.73-6.07a7.58,7.58,0,0,1-6.9-7.56V84.48a7.58,7.58,0,0,1,8.32-7.55l66.73,6.53A7.6,7.6,0,0,1,313.23,91Z"/><path class="cls-12" d="M276.66,234.21v192.5c-5.05,1-10.83,2.05-15.66,2.94V233.37a2.74,2.74,0,0,1,3-2.73l10.18.84A2.74,2.74,0,0,1,276.66,234.21Z"/><path class="cls-13" d="M318.19,353.92c0,.13-.05.27-.08.4,0-.13.06-.25.08-.37a.29.29,0,0,0,0-.09A.14.14,0,0,1,318.19,353.92Z"/><path class="cls-14" d="M284.54,249.91l-6.16,165.83c-5,3.1-11.94,5.26-17.38,7.5-27.8,11.45-60.76,11.69-88.85.76h0l-.17-.06-1.9-.76A102.18,102.18,0,0,1,144,407.69a92,92,0,0,1-22.52-27h0c-7.2-13.14-11.59-28.79-12.09-46.95,15.32.59,22.31-5.17,23.09-12.94.85-8.43-5.63-19.22-16.7-26.77C138.92,229.11,209,214,261,237.06A250.31,250.31,0,0,1,284.54,249.91Z"/><path class="cls-14" d="M318.19,353.92a.14.14,0,0,0,0-.06.29.29,0,0,1,0,.09c0,.12-.05.24-.08.37C318.14,354.19,318.17,354.05,318.19,353.92Z"/><path class="cls-15" d="M275.35,246.39c-.47-.32-1-.62-1.42-.91l-1.56-1L261,254.81l-6.24,5.65-.07.06-.32.29-3.16,2.86-25.58,23.14-2.48,2.25-.63.56-1.74,1.58-.64.58-1.71,1.55L217,294.59l-2.57,2.32-1.37,1.23-14.27,12.91-1.64,1.5-6.61,6-1.26,1.13-3.93,3.56-.54.49-4.28,3.87-.91.83-6.63,6-.2.18-32.19,29.12-1.09,1-11.66,10.55L122.64,380a102.84,102.84,0,0,0,13,17.8l4.34-3.92,11.61-10.51,1.31-1.18,30.51-27.61,1.09-1,4.42-4,3.38-3.05.91-.83,3.07-2.77.83-.75,2.13-1.92.8-.73,4.48-4.06,7.72-7,3.94-3.56L225,317l1.51-1.37.42-.38,2.25-2,.38-.35,1.84-1.67.83-.75,1.54-1.39,3.1-2.8h0l.8-.72L261,284.37l6.85-6.19h0l.34-.3h0l4.37-3.94.15-.14.21-.19h0l3.74-3.38v-23Z"/><path class="cls-15" d="M275.4,287.89,261,301l-16.83,15.32h0l-1,.89h0l-2.2,2-.14.13-.38.35-.38.33-1.9,1.74h0l-.65.6-10.62,9.67L210.48,347l-3,2.73-3.88,3.53-.95.87-7.17,6.52-.42.39-4.81,4.37-29.62,27-.32.28-14.16,12.9-1.09,1a101.07,101.07,0,0,0,25.6,15.25h0l1.86.75.15.05,15.94-14.52,18.13-16.5.18-.16,5.36-4.89,7.44-6.76,10.52-9.59,30.75-28L276.66,328v-41.2Z"/><path class="cls-16" d="M276.74,277.74l-.84-.9-.81-.87-1.23-1.25-.15-.14-.42-.42-.64-.62-.09-.08-.6-.56-.37-.36c-.1-.08-.18-.17-.27-.24-.39-.37-.79-.72-1.2-1.08l-.11-.09L268.69,270l-.05-.05c-.38-.32-.77-.64-1.17-.95s-.85-.68-1.27-1l-.64-.48c-.79-.6-1.58-1.18-2.39-1.76-.53-.37-1.05-.74-1.6-1.09l-.85-.57-.68-.44-1-.63-1.6-1-1.82-1-.3-.16a4.31,4.31,0,0,0-.47-.26l-.17-.1-1.19-.62c-.17-.1-.35-.19-.52-.27-.88-.45-1.78-.89-2.68-1.31l-.91-.41-.92-.41-.88-.38-.3-.12c-.21-.1-.44-.18-.67-.27l-.93-.38c-.94-.37-1.9-.72-2.86-1.06l-.94-.33c-.32-.1-.63-.21-1-.3l-1-.32q-1-.3-2-.57l-1-.28c-.46-.13-.93-.25-1.4-.36s-1-.26-1.58-.38c-.33-.08-.66-.16-1-.22s-.67-.16-1-.22l-.9-.19c-1-.19-2.1-.38-3.16-.55-.61-.09-1.21-.18-1.83-.25s-1.11-.15-1.67-.21c-.76-.08-1.53-.16-2.3-.22l-1.73-.13-1.88-.1-1.06,0c-1.53,0-3,0-4.55,0h-.11c-40.69,1.06-74.35,31.26-79.43,70.6,0,.34-.1.69-.13,1q-.41,3.46-.51,7c0,.34,0,.67,0,1a79.43,79.43,0,0,0,4.9,28.9c.75,2,1.57,4,2.47,6h0a80.27,80.27,0,0,0,6.34,11.22,77.58,77.58,0,0,0,5.68,7.43l.17.2q1.43,1.67,2.94,3.24,2.84,2.94,5.94,5.59,1.63,1.39,3.35,2.72,2.63,2,5.44,3.83a82.3,82.3,0,0,0,19.2,9.15c1.23.41,2.48.79,3.74,1.13a83.19,83.19,0,0,0,15.33,2.72l.48,0c.12,0,.25,0,.38,0l.64,0q.83.06,1.65.09c.48,0,1,.05,1.45.05a83.45,83.45,0,0,0,28.18-4c.82-.26,1.62-.54,2.42-.83A82.81,82.81,0,0,0,277.23,385V278.29C277.07,278.1,276.91,277.92,276.74,277.74Z"/><path class="cls-17" d="M273.28,274.34l-.14-.15-.43-.41-.63-.63a.34.34,0,0,1-.09-.08l-.6-.55c-.13-.13-.24-.24-.38-.36s-.17-.17-.26-.24c-.39-.37-.8-.72-1.2-1.08l-.11-.09-1.32-1.15-.06,0c-.38-.32-.76-.64-1.16-.95l-1.27-1-.64-.48c-.79-.6-1.59-1.19-2.39-1.76-.53-.37-1.06-.74-1.6-1.09-.28-.2-.57-.39-.85-.57l-.68-.45-1-.62c-.53-.33-1.07-.65-1.61-1s-1.2-.7-1.81-1l-.3-.16c-.16-.1-.32-.18-.47-.26l-.17-.1c-.39-.22-.8-.42-1.19-.63l-.52-.27c-.89-.44-1.78-.88-2.68-1.3l-.91-.42-.92-.4-.89-.39-.29-.11c-.22-.1-.44-.19-.67-.27s-.62-.26-.93-.38c-1-.37-1.9-.72-2.86-1.07l-.94-.32-1-.31-1-.31c-.65-.2-1.3-.4-1.95-.57l-1-.28-1.4-.37-1.58-.38-1-.22-1-.22-.91-.18c-1-.2-2.1-.39-3.15-.55-.61-.09-1.22-.18-1.83-.25s-1.11-.15-1.67-.21c-.76-.09-1.54-.16-2.31-.23l-1.72-.12-1.88-.1-1.06,0c-1.53,0-3,0-4.55,0h-.11c-40.69,1.07-74.35,31.26-79.44,70.61-.05.34-.09.68-.13,1-.26,2.3-.44,4.65-.5,7,0,.34,0,.67,0,1a79.43,79.43,0,0,0,4.9,28.9c.75,2,1.57,4,2.47,6h0a81.47,81.47,0,0,0,6.35,11.23,77.2,77.2,0,0,0,5.68,7.43l.17.2q1.42,1.67,2.94,3.24l30.93-28.71,5.38-5,4.52-4.2,4.19-3.88,2.93-2.72,5.21-4.83,4.24-4h0l.85-.79,3.08-2.86,12.11-11.23,1.48-1.37,2.63-2.44.8-.75,2.34-2.17h0l3.08-2.84h0L261,288.13l8.53-7.92.06-.06,4.77-4.41.15-.15C274.1,275.17,273.7,274.75,273.28,274.34Z"/><path class="cls-18" d="M261,390.6a77.3,77.3,0,0,1-53.31,21.34h-.05l.52,0,.38,0a82.17,82.17,0,0,0,31.93-3.82c.81-.27,1.62-.54,2.42-.84a83.48,83.48,0,0,0,33.77-22.82v-14A84.54,84.54,0,0,1,261,390.6Zm13.36-114.86c-.59-.62-1.19-1.22-1.8-1.82A86,86,0,0,0,261,264.45c-2-1.4-4.15-2.71-6.31-3.93a79.67,79.67,0,0,0-8-3.94,77.2,77.2,0,0,0-34.34-6.39h-.06a83.1,83.1,0,0,1,38.89,13.48,82.22,82.22,0,0,1,9.79,7.6c2,1.77,3.87,3.65,5.67,5.62h0c.4.42.79.84,1.18,1.27h0c.6.65,1.18,1.31,1.74,2a77.36,77.36,0,0,1,5.81,7.74q.66,1,1.26,2V278.2C275.91,277.36,275.15,276.54,274.36,275.74Z"/><path class="cls-18" d="M244.93,328.44,242.35,324h0l-.61-1L240.08,320l-.88-1.54-3.82-6.59h0L233.73,309l-.59-1-10.62-18.4-.72-1.26-4.36-7.54h0l-3.63-6.3,0,0-27.86,42.38-3.48,5.3v0h0l-2.82,4.3a1.63,1.63,0,0,0-.24,1.21,1.67,1.67,0,0,0,.3.65,1.43,1.43,0,0,0,.46.42c3.27,1.94,11.41,6.82,18.61,11.13l.5.3,3.41,2c3.42,2,6.31,3.77,7.84,4.7l.41.24a1.7,1.7,0,0,0,1.65,0l6.81-3.56,24.92-13A1.62,1.62,0,0,0,244.93,328.44Z"/><path class="cls-18" d="M247.79,337.7l-8,5-13.35,8.36-11.22,7-1.63,1a3.92,3.92,0,0,1-2.25.59,3.77,3.77,0,0,1-2.1-.74l-3.53-2.59-3.06-2.24-7.13-5.23-3.23-2.37-.36-.26-8.81-6.45-5.37-3.95a2.71,2.71,0,0,0-3.34.07l-.19.18a2.55,2.55,0,0,0-.39,3.29l9.41,14.92.16.24,2.22,3.52,4.63,7.32,2.11,3.36,14.39,22.82.55.86a3.67,3.67,0,0,0,1.6,1.41,3.86,3.86,0,0,0,4.75-1.17l7.59-10.27,9-12.23,21.19-28.69A2.68,2.68,0,0,0,247.79,337.7Z"/><path class="cls-19" d="M245.24,321.12a1.36,1.36,0,0,0-.12-.49,2.56,2.56,0,0,0-.11-.24l-.18-.32-1.64-2.85-4.72-8.17-1.64-2.81h0l-.62-1.07-10.58-18.35-.76-1.3L217.66,273l-2.1-3.63a1.53,1.53,0,0,0-.31-.4c-.06-.07-.13-.12-.18-.17a1.94,1.94,0,0,0-2.25-.06l-.15.11-.2.2a1.3,1.3,0,0,0-.18.23L180,318.53a1.84,1.84,0,0,0-.3,1.23,2.46,2.46,0,0,0,.1.41.19.19,0,0,0,0,.07,1,1,0,0,0,.1.18.29.29,0,0,0,.08.14l.08.12a.93.93,0,0,0,.13.15,1,1,0,0,0,.19.17,1.13,1.13,0,0,0,.21.15l1.82,1.09h0l1.73,1,.69.42,19.08,11.42.58.34,3.34,2,3.12,1.87a2.12,2.12,0,0,0,.95.27,2,2,0,0,0,1-.22l2.93-1.53,11.1-5.81,11.51-6,3.92-2h0l1.89-1,.22-.14a1.73,1.73,0,0,0,.21-.17l.14-.14s.07-.09.1-.15,0,0,0,0l0,0s0,0,0,0l0,0h0a.12.12,0,0,0,0-.08.14.14,0,0,0,0-.08,1.85,1.85,0,0,0,.12-.4h0A1.46,1.46,0,0,0,245.24,321.12Z"/><path class="cls-20" d="M215.56,269.39a1.53,1.53,0,0,0-.31-.4c-.06-.07-.13-.12-.18-.17a1.94,1.94,0,0,0-2.25-.06l-.15.11-.2.2a1.3,1.3,0,0,0-.19.22L180,318.53a1.84,1.84,0,0,0-.3,1.23,2.46,2.46,0,0,0,.1.41.19.19,0,0,0,0,.07,1,1,0,0,0,.1.18.29.29,0,0,0,.08.14l.08.12a.93.93,0,0,0,.13.15,1,1,0,0,0,.19.17,1.13,1.13,0,0,0,.21.15l1.82,1.09h0l5.64-2.57,2.5-1.13,21.36-9.72a1.82,1.82,0,0,1,.86-.18h0a1.62,1.62,0,0,1,.44.07,1.29,1.29,0,0,1,.41.16l2.93,1.54h0l.11-3.76.34-12.05.22-7.79.18-6,.22-7.8Z"/><path class="cls-21" d="M245.24,321.12a1.6,1.6,0,0,0-.12-.49c0-.08-.07-.16-.12-.24l-.18-.31-1.64-2.85-4.72-8.17-1.63-2.82h0l-.62-1.07-10.58-18.35-.76-1.3L217.66,273l-2.1-3.63a1.53,1.53,0,0,0-.31-.4c-.06-.07-.13-.12-.18-.17a2,2,0,0,0-1.12-.39l-.17,6.12-.17,5.93-.51,17.66-.19,6.73h0v.19l-.1,3.56h0a3.11,3.11,0,0,1,.44.06,1.29,1.29,0,0,1,.41.16l2.93,1.54h0l8.91,4.7,1,.51,3.14,1.66,8.56,4.51,3.07,1.61,1.09.58h0l1.89-1,.22-.14a1.73,1.73,0,0,0,.21-.17l.14-.14s.07-.09.1-.15,0,0,0,0a.11.11,0,0,0,0,0h0s0,0,0,0l0,0h0a.12.12,0,0,0,0-.08.14.14,0,0,0,0-.08,1.85,1.85,0,0,0,.12-.4h0A1.46,1.46,0,0,0,245.24,321.12Z"/><path class="cls-22" d="M245.24,321.12a1.6,1.6,0,0,0-.12-.49c0-.08-.07-.16-.12-.24l-.18-.31-1.64-2.85-4.72-8.17-1.63-2.82h0l-.62-1.07-10.58-18.35-.76-1.3L217.66,273l-2.1-3.63a1.53,1.53,0,0,0-.31-.4c-.06-.07-.13-.12-.18-.17a2,2,0,0,0-1.12-.39l-.17,6.12-.17,5.93,3.65,6.32,2.18,3.76.7,1.22,10.65,18.42.57,1,1.68,2.9,1,1.69,3.16,5.48,1,.53,3.06,1.61,1.09.58h0l1.89-1,.22-.14a1.73,1.73,0,0,0,.21-.17l.14-.14s.07-.09.1-.15,0,0,0,0a.11.11,0,0,0,0,0h0s0,0,0,0l0,0h0a.12.12,0,0,0,0-.08.14.14,0,0,0,0-.08,1.85,1.85,0,0,0,.12-.4h0A1.46,1.46,0,0,0,245.24,321.12Z"/><path class="cls-21" d="M213.76,305.1a2.09,2.09,0,0,0-.41-.17,2.32,2.32,0,0,0-.44-.06,2,2,0,0,0-.86.17l-13.22,6-2.9,1.33-10,4.55-6.24,2.83a2.46,2.46,0,0,0,.1.41.19.19,0,0,0,0,.07,1,1,0,0,0,.1.18.29.29,0,0,0,.08.14l.08.12a.93.93,0,0,0,.13.15,1,1,0,0,0,.19.17,1.13,1.13,0,0,0,.21.15l1.82,1.09h0l1.73,1,.69.42,19.08,11.42.58.34,3.34,2,3.12,1.87a2.12,2.12,0,0,0,.95.27,2,2,0,0,0,1-.22l2.93-1.53.19-6.72,0-1.27.15-4.94.35-12.4.06-2.13.11-3.76Z"/><path class="cls-22" d="M243.87,321l-3-1.6-1.64-.86L234,315.77l-1.78-.94-3.1-1.63-1-.54-11.43-6h0l-2.93-1.54a2.09,2.09,0,0,0-.41-.17,3.29,3.29,0,0,0-.44-.05h0v.19l-.1,3.56-.05,1.9-.52,18-.13,4.68v.35l-.17,6.09a2,2,0,0,0,1-.22l2.93-1.53,11.1-5.81,11.51-6,3.92-2h0l1.89-1,.22-.14a1.73,1.73,0,0,0,.21-.17l.14-.14s.07-.09.1-.15,0,0,0,0a.11.11,0,0,0,0,0h0s0,0,0,0l0,0h0a.12.12,0,0,0,0-.08.14.14,0,0,0,0-.08,1.85,1.85,0,0,0,.12-.4h0Z"/><path class="cls-22" d="M243.87,321l-3-1.6-1.64-.86L234,315.77l-1.78-.94-3.1-1.63-1-.54-11.43-6h0l-2.93-1.54a2.09,2.09,0,0,0-.41-.17,3.29,3.29,0,0,0-.44-.05h0v.19l-.1,3.56-.05,1.9,3.77,2,7.5,4,.94.5,3.17,1.66,4.6,2.42a.75.75,0,0,1,0,1.33L216,331.14h0l-3.05,1.59-.84.44v.35l-.17,6.09a2,2,0,0,0,1-.22l2.93-1.53,11.1-5.81,11.51-6,3.92-2h0l1.89-1,.22-.14a1.73,1.73,0,0,0,.21-.17l.14-.14s.07-.09.1-.15,0,0,0,0a.11.11,0,0,0,0,0h0s0,0,0,0l0,0h0a.12.12,0,0,0,0-.08.14.14,0,0,0,0-.08,1.85,1.85,0,0,0,.12-.4h0Z"/><path class="cls-20" d="M212,352a.77.77,0,0,1-.29.07h-.1a.86.86,0,0,1-.38-.1l-.44-.27-3.26-2L199.71,345l-3.44-2.09-.45-.27-14.61-8.87a.76.76,0,0,0-1.06,1l3,5,5.6,9.43.19.33L191,353.1l4.48,7.55,2,3.37L210,385.08a.77.77,0,0,0,1.17.19,1,1,0,0,0,.14-.15l3.32-4.94.34-12,.29-10.08.23-7.95Z"/><path class="cls-21" d="M242.81,335.64l-9.32,4.94-18,9.56L212,352a.62.62,0,0,1-.29.07h-.1l-.22,7.62-.73,25.4v.36a.77.77,0,0,0,.53-.19,1,1,0,0,0,.14-.15l3.32-4.94,25.2-37.47,4-6A.76.76,0,0,0,242.81,335.64Z"/><path class="cls-22" d="M242.81,335.64l-9.29,4.92,0,0-7.05,10.49-11.51,17.1-4,6-.32,11v.36a.77.77,0,0,0,.53-.19,1,1,0,0,0,.14-.15l3.32-4.94,25.2-37.47,4-6A.76.76,0,0,0,242.81,335.64Z"/><path class="cls-9" d="M306.37,83.46l-66.73-6.53a7.58,7.58,0,0,0-8.32,7.55V216.1a7.58,7.58,0,0,0,6.9,7.56L305,229.73a7.59,7.59,0,0,0,8.28-7.56V91A7.6,7.6,0,0,0,306.37,83.46ZM305.2,203.11a4.88,4.88,0,0,1-5.35,4.85l-57.77-5.2a4.87,4.87,0,0,1-3.8-2.41,4.75,4.75,0,0,1-.67-2.44V87.57A4.9,4.9,0,0,1,243,82.72l15.14,1.47,42.63,4.13a4.89,4.89,0,0,1,4.43,4.86Z"/><path class="cls-3" d="M152.43,244c-.58.42-1.16.86-1.73,1.3,0,0,0,0-.06,0-2.14,1.61-4.22,3.3-6.22,5a26.57,26.57,0,0,0-.9-9.13c-.08-.31-.17-.62-.25-.91-.27-.9-.54-1.72-.76-2.52v0a65.89,65.89,0,0,0,5.66-5.14l.08.07c.29.44.58.93.88,1.46.13.22.26.45.38.69a24.59,24.59,0,0,1,2.92,9.07A.06.06,0,0,1,152.43,244Z"/><path class="cls-23" d="M73.79,260.21l40.51,33.56h0l0,.07.85.57.11.08.15.11h0c1.07.74,2.14,1.46,3.22,2.17.77.51,1.53,1.05,2.28,1.6.44.32.87.63,1.28,1a36.14,36.14,0,0,1,6.52,6.56l0,0c.37.49.72,1,1.06,1.52,3.09,4.71,4.29,8.65,4.22,11.94a.37.37,0,0,1,0,.11c0,.25,0,.48,0,.71a11.37,11.37,0,0,1-1.86,5.32,17.66,17.66,0,0,1-7.06,5.85,32.24,32.24,0,0,1-7.76,2.62,19.6,19.6,0,0,1-3,.42c-.84,0-1.7,0-2.53,0h-.68a.33.33,0,0,1-.14,0c-.85,0-1.64,0-2.33-.1l-.85-.08c-10.94-1.31-64-13.95-72-42.24a26.54,26.54,0,0,1-1-5.46h0c-1.84-19.53-1.12-30.66,5.66-54.49v0a1.36,1.36,0,0,1,2.3-.56,66.78,66.78,0,0,0,6.36,6,71.27,71.27,0,0,0,23.08,12.6,76.13,76.13,0,0,0,23.79,3.76,73.76,73.76,0,0,0,46.44-16v0c.22.8.49,1.62.76,2.52l0,.09a1.36,1.36,0,0,1-.38,1.39l-.46.42-.19.17A69,69,0,0,1,96.12,260,75.2,75.2,0,0,1,73,255.92"/><path class="cls-24" d="M125.78,113a70.22,70.22,0,0,0,12.77-40.53q0-2.37-.15-4.71a1.31,1.31,0,0,1,2.27-1,70.79,70.79,0,0,1,11.92,76.1"/><path class="cls-25" d="M167.14,181.58l-2.57-.26c-3-.3-6-.54-9-.75-9.59-.66-19.55-.88-29.74-.63-38,.94-72.29,8.31-97.11,19.48l-1.2.54-.12.06c-1.5.69-3,1.4-4.39,2.13a67.23,67.23,0,0,1-3.81-19.4c.86-.41,1.74-.81,2.62-1.21A196.78,196.78,0,0,1,52.6,170.85c2.68-.7,5.41-1.37,8.19-2,.64-.15,1.28-.29,1.93-.42s1.38-.3,2.07-.44l2.09-.43,2.1-.41,2.13-.39,2.13-.38.12,0,4.21-.68c1.44-.23,2.9-.45,4.37-.66l2.17-.29,2.26-.29.25,0c1-.13,2.11-.26,3.18-.37,2.57-.3,5.18-.55,7.8-.77,1.19-.1,2.38-.2,3.58-.28l.76-.06,3.32-.21,3.78-.2h.26q3.81-.18,7.67-.26h0l1.23,0c2,0,4.06-.06,6.11,0q3.59,0,7.12.1,8.31.19,16.35.84,4.32.33,8.53.79,3.12.33,6.19.73c1.07.14,2.13.28,3.18.44a66.63,66.63,0,0,1,1.47,12.47C167.2,178.9,167.19,180.25,167.14,181.58Z"/><path class="cls-25" d="M162.51,164.64q-3.07-.4-6.19-.73-4.22-.47-8.53-.79C148,149,144.47,137.8,139.35,129a66,66,0,0,1,13.24,13.84A62.8,62.8,0,0,1,162,162.76Z"/><path class="cls-3" d="M165.28,191.15a68.33,68.33,0,0,1-15.78,43.77c-.47.59-1,1.18-1.48,1.75l-.13.14c-1.39,1.56-2.84,3.06-4.37,4.48l-1.07,1-.19.17A69.24,69.24,0,0,1,46.5,239.1a64.61,64.61,0,0,1-4.88-5.57c-.38-.47-.74-.95-1.1-1.44a68.27,68.27,0,0,1-13-32.13l1.2-.54c24.82-11.17,59.1-18.54,97.1-19.48,10.21-.25,20.16,0,29.76.63q4.54.31,9,.75A69.14,69.14,0,0,1,165.28,191.15Z"/><path class="cls-4" d="M160.79,212.1c-3,9-6.62,16.47-12.77,23.42l-.13.15a70.19,70.19,0,0,1-5.44,5.47l-.19.16a69,69,0,0,1-46.14,17.58c-19.47,0-40.95-8.44-56.22-29.64,33.79,12,49.35-.21,60.45-9.41,20.05-16.61,37.24-17.76,47-10.31C151.19,212.47,154.84,220.46,160.79,212.1Z"/><path class="cls-26" d="M83.78,146.93c-4.19,14.79-21.44,21.57-34.24,13.17a38.69,38.69,0,0,1-16.71-24.43l-.09-.4a89,89,0,0,1-1.82-17.93A87.47,87.47,0,0,1,52.4,59.76a1.6,1.6,0,0,1,2.79,1,129.91,129.91,0,0,0,14,49.19c.71,1.37,1.47,2.75,2.28,4.12A135.55,135.55,0,0,0,80,126.63,23.26,23.26,0,0,1,83.78,146.93Z"/><path class="cls-25" d="M147.79,163.12q-8-.65-16.35-.84c-.22-22.63-11.52-39-24.18-50.18a100.36,100.36,0,0,0-13.53-10,35,35,0,0,1,6.47-2.89A71,71,0,0,1,125.78,113a61.62,61.62,0,0,1,13.57,16C144.47,137.8,148,149,147.79,163.12Z"/><path class="cls-27" d="M118.21,162.23l-1.23,0h0q-3.85.08-7.67.26H109l-3.78.2-3.32.21-.76.06c-1.2.08-2.39.18-3.58.28-2.62.22-5.23.47-7.8.77-1.07.11-2.13.24-3.18.37l-.25,0-2.26.29-2.17.29c-1.47.21-2.93.43-4.37.66l-4.21.68-.12,0-2.13.38-2.13.39-2.1.41-2.09.43c-.69.14-1.39.28-2.07.44s-1.29.27-1.93.42c-2.78.62-5.51,1.29-8.19,2a196.78,196.78,0,0,0-30.77,10.69,69.76,69.76,0,0,1,12.62-40.29A38.76,38.76,0,0,0,49.54,160.1c12.8,8.4,30.05,1.62,34.24-13.17A23.26,23.26,0,0,0,80,126.63,135.55,135.55,0,0,1,71.47,114a72.15,72.15,0,0,1,12.36-2.74c1.46-.2,2.94-.35,4.43-.45C101.81,119.7,117.05,135.53,118.21,162.23Z"/><path class="cls-28" d="M131.44,162.28q-3.54-.1-7.12-.1c-2,0-4.08,0-6.11,0-1.16-26.7-16.4-42.53-29.95-51.4-1-.64-3.26-.5-4.4-.33a39.56,39.56,0,0,1,9.87-8.45,100.36,100.36,0,0,1,13.53,10C119.92,123.3,131.22,139.65,131.44,162.28Z"/><path class="cls-29" d="M140.41,215.57l-3,2.38-4.26,3.38a1.5,1.5,0,0,1-.7.28l-.13,0a1.64,1.64,0,0,1-1-.2l-4.71-2.87-3.32-2c-.86-.52-.36-1.53.79-1.6l7.65-.43,7.65-.44C140.54,214,141.18,215,140.41,215.57Z"/><path class="cls-30" d="M132.16,219.88l.24,4.84s-8.51,8.4-12.91.73"/><path class="cls-30" d="M132.25,219.7l.25,4.85s7.55,7.74,10.34-.22"/><path class="cls-13" d="M520.86,322.63c0,.14-.05.27-.07.4.05-.2.08-.41.12-.61A.65.65,0,0,1,520.86,322.63Z"/><path class="cls-31" d="M507.25,249.36q1.26,2,2.44,4.08Q508.52,251.37,507.25,249.36ZM503,243.08l-.27-.35c.21.28.43.57.63.86Zm-2.8-3.62c-.25-.29-.49-.59-.73-.88.4.51.84,1,1.24,1.54h0Zm-1.67-2,.93,1.11h0Zm-4.38-4.8c.91.93,1.79,1.88,2.66,2.85C495.9,234.54,495,233.6,494.11,232.67Zm-4.14-4h0l1.17,1.08Z"/><path class="cls-31" d="M522.78,303.32a101.24,101.24,0,0,1-33.19,74.53h0c-21.7,20-52.16,29.84-81.47,26.7v-203a105.18,105.18,0,0,1,65.14,14.51h0a104.63,104.63,0,0,1,16.05,12h0q2.28,2.05,4.43,4.26h0c2,2,3.86,4.11,5.66,6.27h0c.4.51.84,1,1.24,1.54l0,0a101.27,101.27,0,0,1,10.25,15.59A100.22,100.22,0,0,1,522.78,303.32Z"/><path class="cls-15" d="M488.14,229.1h0a102.92,102.92,0,0,0-17.31-12.69c-18.84,18.43-43.91,43-62.71,61.38v29.81l59.52-58.26h0l5.2-5.1h0c.1-.09,15.29-15,15.39-15Z"/><path class="cls-15" d="M513.64,264.82a100,100,0,0,0-14.1-23.76v0l-91.41,89.42v40c27.76-27.16,78.56-76.84,106.21-103.9C514.1,266,513.86,265.39,513.64,264.82Z"/><path class="cls-16" d="M499.61,301.69a78.76,78.76,0,0,0-26.7-57.58h0a81.75,81.75,0,0,0-64.79-19.65V381.64C456.32,388.46,500.91,349.84,499.61,301.69Z"/><path class="cls-17" d="M474.9,245.94c-.66-.62-1.32-1.23-2-1.83h0a81.75,81.75,0,0,0-64.79-19.65v89.18c20.55-20.11,47.31-46.26,68-66.51C475.72,246.72,475.31,246.33,474.9,245.94Z"/><path class="cls-18" d="M499.61,301.69a78.76,78.76,0,0,0-26.7-57.58h0a81.53,81.53,0,0,0-58.29-20.24A81,81,0,0,1,468.5,248.6h0c47.39,47.31,12.5,131.64-54.31,133.61C460.72,385.1,500.63,347.65,499.61,301.69Z"/><path class="cls-32" d="M426.05,278.59l17.18,17.19a1.6,1.6,0,0,0,2.24,0l9.06-9.06a1.58,1.58,0,0,0,0-2.24L426.05,256a1.58,1.58,0,0,0-2.24,0l-28.46,28.47a1.58,1.58,0,0,0,0,2.24l9,9.05a1.58,1.58,0,0,0,2.24,0l17.17-17.17a1.58,1.58,0,0,1,2.24,0Z"/><path class="cls-32" d="M385.14,294.68l-9.06,9.06a1.58,1.58,0,0,0,0,2.24l9.06,9.06a1.59,1.59,0,0,0,2.23,0l9.06-9.06a1.58,1.58,0,0,0,0-2.24l-9.06-9.06a1.59,1.59,0,0,0-2.23,0Z"/><path class="cls-32" d="M426.05,353.73l28.48-28.49a1.58,1.58,0,0,0,0-2.24L445.47,314a1.58,1.58,0,0,0-2.24,0l-17.18,17.18a1.58,1.58,0,0,1-2.24,0L406.64,314a1.6,1.6,0,0,0-2.24,0L395.34,323a1.59,1.59,0,0,0,0,2.24l28.48,28.49a1.6,1.6,0,0,0,2.24,0Z"/><path class="cls-32" d="M462.5,294.69l-9.06,9.06a1.57,1.57,0,0,0,0,2.23L462.5,315a1.57,1.57,0,0,0,2.23,0l9.06-9.06a1.58,1.58,0,0,0,0-2.24l-9.06-9.05a1.57,1.57,0,0,0-2.23,0Z"/><path class="cls-32" d="M435.28,303.74l-9.23-9.23a1.58,1.58,0,0,0-2.24,0l-9.22,9.23a1.58,1.58,0,0,0,0,2.24l9.22,9.23a1.58,1.58,0,0,0,2.24,0l9.23-9.23a1.58,1.58,0,0,0,0-2.24Z"/><path class="cls-33" d="M430.48,275.41l17.18,17.18a1.58,1.58,0,0,0,2.24,0l9.06-9.06a1.58,1.58,0,0,0,0-2.24l-28.48-28.48a1.58,1.58,0,0,0-2.24,0l-28.47,28.47a1.6,1.6,0,0,0,0,2.24l9.06,9.06a1.58,1.58,0,0,0,2.24,0l17.17-17.17a1.58,1.58,0,0,1,2.24,0Z"/><path class="cls-33" d="M430.48,350.54,459,322.05a1.58,1.58,0,0,0,0-2.24l-9.06-9.05a1.58,1.58,0,0,0-2.24,0l-17.18,17.18a1.58,1.58,0,0,1-2.24,0l-17.17-17.17a1.58,1.58,0,0,0-2.24,0l-9.07,9a1.58,1.58,0,0,0,0,2.24l28.48,28.49a1.58,1.58,0,0,0,2.24,0Z"/><path class="cls-33" d="M466.92,291.5l-9.05,9.06a1.58,1.58,0,0,0,0,2.24l9.05,9.06a1.6,1.6,0,0,0,2.24,0l9.06-9.06a1.6,1.6,0,0,0,0-2.24l-9.06-9.06a1.58,1.58,0,0,0-2.24,0Z"/><path class="cls-33" d="M439.71,300.56l-9.23-9.24a1.6,1.6,0,0,0-2.24,0L419,300.56a1.59,1.59,0,0,0,0,2.23l9.23,9.23a1.58,1.58,0,0,0,2.24,0l9.23-9.23a1.57,1.57,0,0,0,0-2.23Z"/><path class="cls-33" d="M389.56,291.49l-9.06,9.06a1.6,1.6,0,0,0,0,2.24l9.06,9.06a1.58,1.58,0,0,0,2.24,0l9.06-9.06a1.6,1.6,0,0,0,0-2.24l-9.06-9.05a1.59,1.59,0,0,0-2.24,0Z"/><path class="cls-34" d="M409.78,79.32l-.07,342a15.39,15.39,0,0,1-12.56,15.12l-76.24,14.23.08-363a16.69,16.69,0,0,0-4-10.89l-.42-.46a15.94,15.94,0,0,0-2.84-2.46,16.69,16.69,0,0,0-7.63-2.81l-1.29-.14-70-7.53,40.44-4,34.32-3.37L395.77,64a15.41,15.41,0,0,1,14,15.36Z"/><path class="cls-8" d="M276.66,426.71v5.54a2.74,2.74,0,0,1-3.29,2.68l-10.18-2.08a2.74,2.74,0,0,1-2.19-2.68v-.52C265.83,428.76,271.62,427.67,276.66,426.71Z"/><path class="cls-35" d="M318.16,77.11a17.89,17.89,0,0,0-6.55-5.26A20.6,20.6,0,0,0,304.7,70c-21.33-1.68-62.6-6.81-62.6-6.81l37.52-4,34.32-3.37,72,9.74c2.46.23-2,2.46.36,4.84"/><polyline class="cls-36" points="386.04 6 386.04 70.24 274.85 57.88 274.85 0.5 386.04 5.98"/><polygon class="cls-37" points="386.04 5.98 395.95 5.98 395.69 68.14 386.04 70.24 386.04 5.98"/><rect class="cls-38" x="264.48" y="237.26" width="12.75" height="189.03"/><polygon class="cls-35" points="307.06 418.37 277.04 419.42 277.14 243.56 307.06 241.37 307.06 418.37"/><path class="cls-2" d="M115.7,370.92S140.33,410.63,148,411c0,0-6,22.87-11.71,25.56-5.67,4.6-17.7,10.14-30.11-4,.38-3.44.57-5.34.57-5.34s6.11-29,5.73-38.19S115.7,370.92,115.7,370.92Z"/><path class="cls-2" d="M35.12,255.21s49.27,77.9,95.09,72.18c0,0-10.69,16-55-2.3C20.42,309.63,35.12,255.21,35.12,255.21Z"/><path class="cls-2" d="M50.78,312.11s11.77,113,54,119.88c-6.65,13.78-18.1,33.25-40.25,16.07s-35-110-28.45-151.89C41.14,302.47,49,312.44,50.78,312.11Z"/><path class="cls-2" d="M87.82,330.06s19.86,99.29,57.67,89.36C147,410.63,148,411,148,411s-41.47-37.22-39.35-76.66C89,330.44,87.82,330.06,87.82,330.06Z"/><path class="cls-2" d="M29.4,205.57S104.62,180,165.34,188.38l-.77-7.06S108.06,174.25,42,193.73c-11.84,4.58-13.27,5.69-13.27,5.69l.67,6.15"/><path class="cls-29" d="M117.43,201.27c-.24,4.79-3.14,8.54-6.47,8.37s-5.85-4.19-5.61-9,3.14-8.55,6.48-8.38S117.68,196.47,117.43,201.27Z"/><path class="cls-5" d="M111.7,209.34c-1.1,1.38-2.39,2.81-3.53,4.27a23.18,23.18,0,0,0-2.89,4.81,24.13,24.13,0,0,0-1,2.66c-.13.46-.21.93-.32,1.39l-.14.71-.07.71a21,21,0,0,0,.16,5.86l-.14,0a18,18,0,0,1-1.41-5.93,18.54,18.54,0,0,1,.64-6.23,23.93,23.93,0,0,1,2.49-5.82,14.75,14.75,0,0,1,4.26-4.76Z"/><path class="cls-5" d="M107.91,203.92a88.32,88.32,0,0,0-7.8,6.26,43.1,43.1,0,0,0-6.66,7.5,26.52,26.52,0,0,0-4.13,9.08,21.71,21.71,0,0,0-.45,5,21.2,21.2,0,0,0,.86,5h0a22,22,0,0,1-1.41-5,20.57,20.57,0,0,1,0-5.26,26.68,26.68,0,0,1,3.5-10,45.32,45.32,0,0,1,6.38-8.44,42.79,42.79,0,0,1,8.15-6.8,1.5,1.5,0,0,1,1.68,2.49Z"/><path class="cls-29" d="M153,200.22c-.24,4.79-3.14,8.54-6.47,8.37s-5.85-4.19-5.61-9,3.14-8.55,6.48-8.38S153.29,195.42,153,200.22Z"/><path class="cls-5" d="M150.64,205.09a6.84,6.84,0,0,1,1.68,1.26,9.66,9.66,0,0,1,1.27,1.58,15.44,15.44,0,0,1,1.76,3.66,11.45,11.45,0,0,1,.58,4l-.07,1-.21,1a10.17,10.17,0,0,1-.62,1.81,12.16,12.16,0,0,0-.43-3.61,11.9,11.9,0,0,0-1.42-3.14,16.36,16.36,0,0,0-2.12-2.64,23,23,0,0,1-2.23-2.45l-.12-.16a1.51,1.51,0,0,1,1.93-2.23Z"/><path class="cls-5" d="M153.25,200a10.83,10.83,0,0,1,2.48,1.23c.37.24.72.52,1.08.79s.67.6,1,.91a12.51,12.51,0,0,1,2.83,4.52,12,12,0,0,1,.75,5.11l0,.63-.1.63-.23,1.23c-.2.81-.47,1.59-.73,2.36a.07.07,0,0,1-.09.05.06.06,0,0,1,0-.07h0c0-.82.11-1.62.12-2.41l-.07-1.19,0-.58-.1-.58-.2-1.14-.35-1.08a6.35,6.35,0,0,0-.41-1,5.32,5.32,0,0,0-.5-1,11.45,11.45,0,0,0-2.84-3.27,19.49,19.49,0,0,0-1.76-1.26c-.59-.38-1.29-.75-1.81-1l-.15-.08a1.49,1.49,0,0,1,1.17-2.74Z"/><g class="cls-39"><g class="cls-40"><path class="cls-4" d="M294.44,24.47a2.52,2.52,0,0,1-2.22-1.88,5.5,5.5,0,0,1-.08-.62l0-1.41a2.42,2.42,0,0,1,.09-.6,2.1,2.1,0,0,1,2.16-1.72c1.54.09,2.41,1.54,2.45,3.19,0,1.88-.83,3.12-2.37,3m.34-7.4A2.86,2.86,0,0,0,292,18.5h0l-.1-1.41-1.3-.08c0,.79.09,1.64.12,2.69l.18,8.89,1.45.09-.1-4.47h0a3,3,0,0,0,2.5,1.43c1.88.11,3.61-1.24,3.54-4.2-.05-2.49-1.54-4.26-3.48-4.37"/><path class="cls-4" d="M303.49,25c-1.42-.08-2.46-1.49-2.5-3.29,0-1.56.68-3.15,2.4-3s2.43,1.91,2.46,3.3c0,1.85-1,3.13-2.36,3m-.09-7.46c-2.22-.13-3.94,1.38-3.88,4.14a4.24,4.24,0,0,0,3.93,4.44c1.93.11,3.95-1.09,3.89-4.13a4.24,4.24,0,0,0-3.94-4.45"/><path class="cls-4" d="M319.69,18.7l-1.44-.08-1.06,4.06a25.88,25.88,0,0,0-.55,2.63h0c-.21-.85-.46-1.73-.78-2.72L314.5,18.4l-1.23-.07-1.22,4.12c-.24.86-.49,1.73-.65,2.55h0c-.17-.86-.4-1.72-.65-2.64l-1.15-4.25L308.06,18l2.59,8.36,1.33.07,1.2-3.83a22.15,22.15,0,0,0,.67-2.67h0c.22,1,.48,1.81.78,2.74l1.3,4,1.32.08,2.41-8.07"/><path class="cls-4" d="M321.88,22.14c.08-1,.7-2.39,2.18-2.3a2.31,2.31,0,0,1,2.06,2.55l-4.24-.25m2.27-3.36c-2.33-.14-3.71,1.73-3.66,4.21a4.15,4.15,0,0,0,4,4.38,6.07,6.07,0,0,0,2.65-.37l-.27-1.08a4.92,4.92,0,0,1-2.21.3,2.85,2.85,0,0,1-2.81-3l5.62.33c0-.16,0-.4,0-.7,0-1.51-.78-3.91-3.39-4.06"/><path class="cls-4" d="M332.8,19.28A2.18,2.18,0,0,0,330.62,21h-.07l-.08-1.62-1.27-.08c.06.78.09,1.61.11,2.57l.12,5.66,1.44.08-.09-4.38a3.67,3.67,0,0,1,.05-.69,1.88,1.88,0,0,1,1.91-1.81,2.24,2.24,0,0,1,.5.09l0-1.41a1.3,1.3,0,0,0-.41-.08"/><path class="cls-4" d="M335.4,22.93c.1-1,.71-2.39,2.18-2.31a2.32,2.32,0,0,1,2.07,2.55l-4.25-.24m2.28-3.37c-2.34-.13-3.72,1.74-3.67,4.21a4.15,4.15,0,0,0,4,4.38,6.1,6.1,0,0,0,2.65-.36l-.27-1.08a5,5,0,0,1-2.21.3,2.86,2.86,0,0,1-2.81-3l5.63.33a5.61,5.61,0,0,0,0-.7c0-1.5-.78-3.91-3.39-4.06"/><path class="cls-4" d="M346.2,27.44c-1.57-.09-2.39-1.52-2.43-3.18,0-1.82.82-3.12,2.33-3a2.4,2.4,0,0,1,2.14,1.86,3.4,3.4,0,0,1,.08.62l0,1.43a2.49,2.49,0,0,1-.06.64,2,2,0,0,1-2.09,1.67m3.42-10.83-1.46-.08.11,4.91h0A2.94,2.94,0,0,0,345.79,20c-2-.11-3.57,1.48-3.49,4.21.05,2.49,1.58,4.26,3.51,4.37a2.69,2.69,0,0,0,2.7-1.45h0l.09,1.43,1.31.08c-.06-.57-.09-1.4-.11-2.12l-.21-9.94"/><path class="cls-4" d="M359.46,28.22a2.46,2.46,0,0,1-2.29-2.42l0-1.48a2.74,2.74,0,0,1,.06-.61,2.12,2.12,0,0,1,2.18-1.7c1.56.09,2.41,1.55,2.45,3.2,0,1.88-.85,3.1-2.37,3M357,17,355.54,17l.21,9.93c0,.73,0,1.56,0,2.11l1.26.08,0-1.36h.05a3.09,3.09,0,0,0,2.71,1.69c1.79.11,3.56-1.24,3.5-4.18,0-2.5-1.48-4.28-3.47-4.39a2.71,2.71,0,0,0-2.69,1.35h0L357,17"/><path class="cls-4" d="M371.38,21.7l-1.54-.08-1.48,4.73c-.19.58-.34,1.2-.48,1.68h0c-.14-.5-.35-1.16-.54-1.71l-1.86-5-1.58-.09L367,29a1.72,1.72,0,0,1,.1.4,1.05,1.05,0,0,1-.1.35,4,4,0,0,1-1.2,1.59,3.38,3.38,0,0,1-1.25.66l.39,1.28a3.53,3.53,0,0,0,1.76-.87c1-.83,1.66-2.23,2.64-5l2.06-5.74"/><path class="cls-4" d="M320.5,37.66l-2.2-.13L316.06,44c-.56,1.7-1,3.18-1.31,4.54h-.06c-.37-1.45-.86-3-1.45-4.7l-2.42-6.78-2.2-.12L308,50.64l1.65.1.23-5.87c.08-2,.13-4.34.14-6.06h0c.41,1.66,1,3.46,1.67,5.43l2.3,6.67,1.31.07,2.22-6.52c.63-1.85,1.15-3.53,1.57-5.12h.06c0,1.72.19,4,.32,5.95l.47,6.05,1.69.1L320.5,37.66"/><polyline class="cls-4" points="332.17 38.34 322.27 37.76 322.3 39.27 326.37 39.5 326.63 51.73 328.38 51.83 328.12 39.6 332.2 39.84 332.17 38.34"/><path class="cls-4" d="M339.57,38.62c-4.49-.26-7.16,2.58-7.09,6.67a7.65,7.65,0,0,0,2,5.22,7.29,7.29,0,0,0,5,2.11,11.8,11.8,0,0,0,4.09-.52l-.14-6.6L339,45.25l0,1.42,2.72.16.08,4.1a5.45,5.45,0,0,1-2.29.22c-3.11-.18-5.2-2.35-5.28-5.84s2-5.4,5.26-5.21a7.11,7.11,0,0,1,3,.77l.38-1.42a8.36,8.36,0,0,0-3.34-.83"/><path class="cls-4" d="M355.15,39.67l-2-.11-1.85,3.67c-.5,1-.93,1.88-1.29,2.75h0c-.44-1-.85-1.84-1.39-2.9l-2-3.9-2-.12,4.4,8.15.13,5.83,1.75.1-.13-5.85,4.32-7.62"/></g></g></g><g id="Layer_2-2" data-name="Layer 2"><path class="cls-2" d="M28.82,200.6s62.25,56.33,101.77,49.46C113.22,264.76,40.47,269.53,28.82,200.6Z"/><path class="cls-2" d="M53.76,60s-7.3,98.1,18.48,100.1c-19.48,12.6-36.16-14-37.59-20.19C33,132.6,21.9,96,53.76,60Z"/><path class="cls-2" d="M139.57,66.56s12,46.78,4.39,65.11c7.64,9.17,9.35,10.7,9.35,10.7s7.45-25.4,4.59-38.57S148.35,72.29,139.57,66.56Z"/><g id="Layer_2-3" data-name="Layer 2"><g class="cls-39"><g class="cls-41"><path class="cls-4" d="M297.63,111.12,272.45,109c-3.12-.27-5.6,2.29-5.55,5.71l0,1.35,36.47,3.13,0-1.35c-.05-3.42-2.63-6.42-5.75-6.69"/><polyline class="cls-4" points="289.56 119.31 280.8 118.56 280.95 128.17 289.71 128.92 289.56 119.31"/><polyline class="cls-4" points="303.42 120.5 294.66 119.75 294.82 129.35 303.58 130.11 303.42 120.5"/><polyline class="cls-4" points="275.71 118.12 266.95 117.37 267.1 126.98 275.86 127.73 275.71 118.12"/><path class="cls-4" d="M289.73,130.26l-8.76-.75.11,6.34a3.53,3.53,0,0,0,3,3.52l5.79.5-.16-9.61"/><path class="cls-4" d="M303.6,131.45l-8.76-.76.1,6.35a3.54,3.54,0,0,0,3,3.52l5.8.5-.15-9.61"/><path class="cls-4" d="M275.88,129.07l-8.76-.75.1,6.35a3.54,3.54,0,0,0,3,3.51l5.78.5-.15-9.61"/></g></g></g><rect class="cls-35" x="314.37" y="336.26" width="5.34" height="21.85"/></g></g></svg>